<?xml version="1.0" encoding="UTF-8" standalone="no"?>
<!DOCTYPE svg PUBLIC "-//W3C//DTD SVG 1.1//EN" "http://www.w3.org/Graphics/SVG/1.1/DTD/svg11.dtd">
<svg width="100%" height="100%" viewBox="0 0 512 512" version="1.1" xmlns="http://www.w3.org/2000/svg" xmlns:xlink="http://www.w3.org/1999/xlink" xml:space="preserve" xmlns:serif="http://www.serif.com/" style="fill-rule:evenodd;clip-rule:evenodd;stroke-linejoin:round;stroke-miterlimit:2;">
    <g transform="matrix(1,0,0,1,-640,-640)">
        <g id="discord" transform="matrix(1,0,0,1,128,640)">
            <rect x="512" y="0" width="512" height="512" style="fill:none;"/>
            <clipPath id="_clip1">
                <rect x="512" y="0" width="512" height="512"/>
            </clipPath>
            <g clip-path="url(#_clip1)">
                <g transform="matrix(1.71233,0,0,1.71233,-768.877,-132.382)">
                    <path d="M968.704,334.336C968.704,334.336 959.488,323.328 951.808,313.6C985.344,304.128 998.144,283.136 998.144,283.136C987.648,290.048 977.664,294.912 968.704,298.24C955.904,303.616 943.616,307.2 931.584,309.248C907.008,313.856 884.48,312.576 865.28,308.992C850.688,306.176 838.144,302.08 827.648,297.984C821.76,295.68 815.36,292.864 808.96,289.28C808.192,288.768 807.424,288.512 806.656,288C806.144,287.744 805.888,287.488 805.632,287.232C801.024,284.672 798.464,282.88 798.464,282.88C798.464,282.88 810.752,303.36 843.264,313.088C835.584,322.816 826.112,334.336 826.112,334.336C769.536,332.544 748.032,295.424 748.032,295.424C748.032,212.992 784.896,146.176 784.896,146.176C821.76,118.528 856.832,119.296 856.832,119.296L859.392,122.368C813.312,135.68 792.064,155.904 792.064,155.904C792.064,155.904 797.696,152.832 807.168,148.48C834.56,136.448 856.32,133.12 865.28,132.352C866.816,132.096 868.096,131.84 869.632,131.84C885.248,129.792 902.912,129.28 921.344,131.328C945.664,134.144 971.776,141.312 998.4,155.904C998.4,155.904 978.176,136.704 934.656,123.392L938.24,119.296C938.24,119.296 973.312,118.528 1010.18,146.176C1010.18,146.176 1047.04,212.992 1047.04,295.424C1047.04,295.424 1025.28,332.544 968.704,334.336ZM849.664,214.784C835.072,214.784 823.552,227.584 823.552,243.2C823.552,258.816 835.328,271.616 849.664,271.616C864.256,271.616 875.776,258.816 875.776,243.2C876.032,227.584 864.256,214.784 849.664,214.784ZM943.104,214.784C928.512,214.784 916.992,227.584 916.992,243.2C916.992,258.816 928.768,271.616 943.104,271.616C957.696,271.616 969.216,258.816 969.216,243.2C969.216,227.584 957.696,214.784 943.104,214.784Z" style="fill:rgb(222,222,222);fill-rule:nonzero;"/>
                </g>
            </g>
        </g>
    </g>
</svg>
