<?xml version="1.0" encoding="UTF-8" standalone="no"?>
<!DOCTYPE svg PUBLIC "-//W3C//DTD SVG 1.1//EN" "http://www.w3.org/Graphics/SVG/1.1/DTD/svg11.dtd">
<svg width="100%" height="100%" viewBox="0 0 3000 69" version="1.1" xmlns="http://www.w3.org/2000/svg" xmlns:xlink="http://www.w3.org/1999/xlink" xml:space="preserve" xmlns:serif="http://www.serif.com/" style="fill-rule:evenodd;clip-rule:evenodd;stroke-linejoin:round;stroke-miterlimit:2;">
    <g transform="matrix(0.657962,0,0,0.657962,-210.685,-763.146)">
        <g transform="matrix(157.182,0,0,157.182,312.349,1260.29)">
            <path d="M0.653,-0.633L0.716,-0.633L0.716,-0.3C0.716,-0.209 0.685,-0.132 0.623,-0.068C0.621,-0.067 0.62,-0.065 0.619,-0.064C0.552,-0.001 0.473,0.031 0.383,0.033L0.05,0.033L0.05,-0.034L0.386,-0.034C0.462,-0.034 0.526,-0.062 0.579,-0.117C0.628,-0.169 0.653,-0.23 0.653,-0.3L0.653,-0.633ZM0.194,-0.459C0.194,-0.473 0.201,-0.483 0.216,-0.489C0.22,-0.49 0.224,-0.491 0.228,-0.491C0.243,-0.491 0.254,-0.484 0.259,-0.469C0.26,-0.466 0.261,-0.462 0.261,-0.459C0.261,-0.444 0.254,-0.435 0.239,-0.43C0.235,-0.429 0.231,-0.428 0.228,-0.428C0.212,-0.428 0.201,-0.435 0.196,-0.449C0.195,-0.452 0.194,-0.456 0.194,-0.459Z" style="fill:rgb(222,222,237);fill-rule:nonzero;"/>
        </g>
        <g transform="matrix(157.182,0,0,157.182,432.75,1260.29)">
            <path d="M0.05,0.033L0.05,-0.034L0.386,-0.034C0.462,-0.034 0.526,-0.062 0.579,-0.117C0.628,-0.169 0.653,-0.23 0.653,-0.3C0.653,-0.376 0.625,-0.44 0.57,-0.493C0.518,-0.542 0.457,-0.567 0.386,-0.567L0.05,-0.567L0.05,-0.634L0.383,-0.634C0.474,-0.634 0.551,-0.602 0.616,-0.538C0.681,-0.469 0.714,-0.39 0.716,-0.3C0.716,-0.209 0.685,-0.132 0.623,-0.068C0.621,-0.067 0.62,-0.065 0.619,-0.064C0.552,-0.001 0.473,0.031 0.383,0.033L0.05,0.033ZM0.472,-0.421C0.472,-0.436 0.479,-0.446 0.494,-0.451C0.498,-0.452 0.502,-0.453 0.505,-0.453C0.52,-0.453 0.53,-0.446 0.537,-0.432C0.538,-0.428 0.539,-0.424 0.539,-0.421C0.539,-0.407 0.532,-0.397 0.517,-0.392C0.513,-0.391 0.509,-0.39 0.505,-0.39C0.49,-0.39 0.479,-0.397 0.474,-0.411C0.473,-0.414 0.472,-0.418 0.472,-0.421Z" style="fill:rgb(222,222,237);fill-rule:nonzero;"/>
        </g>
        <g transform="matrix(157.182,0,0,157.182,553.151,1260.29)">
            <path d="M0.05,-0.57L0.05,-0.633L0.716,-0.633L0.716,-0.57L0.05,-0.57ZM0.05,0.033L0.05,-0.03L0.716,-0.03L0.716,0.033L0.05,0.033Z" style="fill:rgb(222,222,237);fill-rule:nonzero;"/>
        </g>
        <g transform="matrix(157.182,0,0,157.182,673.553,1260.29)">
            <path d="M0.05,-0.633L0.117,-0.633L0.117,-0.297C0.117,-0.221 0.145,-0.157 0.2,-0.104C0.252,-0.055 0.313,-0.03 0.383,-0.03C0.459,-0.03 0.523,-0.058 0.576,-0.113C0.625,-0.165 0.65,-0.226 0.65,-0.297L0.65,-0.633L0.717,-0.633L0.717,-0.3C0.717,-0.209 0.685,-0.132 0.621,-0.067C0.552,-0.002 0.473,0.031 0.383,0.033C0.292,0.033 0.215,0.002 0.151,-0.06C0.15,-0.062 0.148,-0.063 0.147,-0.064C0.084,-0.131 0.052,-0.21 0.05,-0.3L0.05,-0.633ZM0.194,-0.459C0.194,-0.473 0.201,-0.483 0.216,-0.489C0.22,-0.49 0.224,-0.491 0.228,-0.491C0.243,-0.491 0.254,-0.484 0.259,-0.469C0.26,-0.466 0.261,-0.462 0.261,-0.459C0.261,-0.444 0.254,-0.435 0.239,-0.43C0.235,-0.429 0.231,-0.428 0.228,-0.428C0.212,-0.428 0.201,-0.435 0.196,-0.449C0.195,-0.452 0.194,-0.456 0.194,-0.459Z" style="fill:rgb(222,222,237);fill-rule:nonzero;"/>
        </g>
        <g transform="matrix(157.182,0,0,157.182,793.954,1260.29)">
            <path d="M0.716,-0.634L0.716,-0.567L0.38,-0.567C0.304,-0.567 0.24,-0.539 0.187,-0.484C0.138,-0.432 0.113,-0.371 0.113,-0.3C0.113,-0.224 0.141,-0.16 0.196,-0.107C0.248,-0.058 0.309,-0.034 0.38,-0.034L0.716,-0.034L0.716,0.033L0.383,0.033C0.292,0.033 0.214,0.001 0.149,-0.063C0.084,-0.13 0.051,-0.209 0.05,-0.3C0.05,-0.391 0.081,-0.468 0.143,-0.532C0.145,-0.533 0.146,-0.535 0.147,-0.536C0.216,-0.599 0.294,-0.631 0.383,-0.634L0.716,-0.634ZM0.505,-0.141C0.505,-0.156 0.512,-0.165 0.527,-0.17C0.531,-0.171 0.535,-0.172 0.538,-0.172C0.554,-0.172 0.565,-0.165 0.57,-0.151C0.571,-0.148 0.572,-0.144 0.572,-0.141C0.572,-0.127 0.565,-0.117 0.55,-0.111C0.546,-0.11 0.542,-0.109 0.538,-0.109C0.523,-0.109 0.512,-0.116 0.507,-0.131C0.506,-0.134 0.505,-0.138 0.505,-0.141Z" style="fill:rgb(222,222,237);fill-rule:nonzero;"/>
        </g>
        <g transform="matrix(157.182,0,0,157.182,914.356,1260.29)">
            <path d="M0.653,-0.633L0.716,-0.633L0.716,-0.3C0.716,-0.209 0.685,-0.132 0.623,-0.068C0.621,-0.067 0.62,-0.065 0.619,-0.064C0.552,-0.001 0.473,0.031 0.383,0.033L0.05,0.033L0.05,-0.034L0.386,-0.034C0.462,-0.034 0.526,-0.062 0.579,-0.117C0.628,-0.169 0.653,-0.23 0.653,-0.3L0.653,-0.633ZM0.194,-0.459C0.194,-0.473 0.201,-0.483 0.216,-0.489C0.22,-0.49 0.224,-0.491 0.228,-0.491C0.243,-0.491 0.254,-0.484 0.259,-0.469C0.26,-0.466 0.261,-0.462 0.261,-0.459C0.261,-0.444 0.254,-0.435 0.239,-0.43C0.235,-0.429 0.231,-0.428 0.228,-0.428C0.212,-0.428 0.201,-0.435 0.196,-0.449C0.195,-0.452 0.194,-0.456 0.194,-0.459Z" style="fill:rgb(222,222,237);fill-rule:nonzero;"/>
        </g>
        <g transform="matrix(157.182,0,0,157.182,1034.76,1260.29)">
            <path d="M0.05,0.033L0.05,-0.034L0.386,-0.034C0.462,-0.034 0.526,-0.062 0.579,-0.117C0.628,-0.169 0.653,-0.23 0.653,-0.3C0.653,-0.376 0.625,-0.44 0.57,-0.493C0.518,-0.542 0.457,-0.567 0.386,-0.567L0.05,-0.567L0.05,-0.634L0.383,-0.634C0.474,-0.634 0.551,-0.602 0.616,-0.538C0.681,-0.469 0.714,-0.39 0.716,-0.3C0.716,-0.209 0.685,-0.132 0.623,-0.068C0.621,-0.067 0.62,-0.065 0.619,-0.064C0.552,-0.001 0.473,0.031 0.383,0.033L0.05,0.033ZM0.194,-0.459C0.194,-0.473 0.201,-0.483 0.216,-0.489C0.22,-0.49 0.224,-0.491 0.228,-0.491C0.243,-0.491 0.254,-0.484 0.259,-0.469C0.26,-0.466 0.261,-0.462 0.261,-0.459C0.261,-0.444 0.254,-0.435 0.239,-0.43C0.235,-0.429 0.231,-0.428 0.228,-0.428C0.212,-0.428 0.201,-0.435 0.196,-0.449C0.195,-0.452 0.194,-0.456 0.194,-0.459Z" style="fill:rgb(222,222,237);fill-rule:nonzero;"/>
        </g>
        <g transform="matrix(157.182,0,0,157.182,1155.16,1260.29)">
            <path d="M0.05,0.033L0.05,-0.034L0.386,-0.034C0.462,-0.034 0.526,-0.062 0.579,-0.117C0.628,-0.169 0.653,-0.23 0.653,-0.3C0.653,-0.376 0.625,-0.44 0.57,-0.493C0.518,-0.542 0.457,-0.567 0.386,-0.567L0.05,-0.567L0.05,-0.634L0.383,-0.634C0.474,-0.634 0.551,-0.602 0.616,-0.538C0.681,-0.469 0.714,-0.39 0.716,-0.3C0.716,-0.209 0.685,-0.132 0.623,-0.068C0.621,-0.067 0.62,-0.065 0.619,-0.064C0.552,-0.001 0.473,0.031 0.383,0.033L0.05,0.033ZM0.472,-0.172C0.472,-0.187 0.479,-0.197 0.494,-0.202C0.498,-0.203 0.502,-0.204 0.505,-0.204C0.52,-0.204 0.53,-0.197 0.537,-0.183C0.538,-0.179 0.539,-0.175 0.539,-0.172C0.539,-0.158 0.532,-0.148 0.517,-0.143C0.513,-0.142 0.509,-0.141 0.505,-0.141C0.49,-0.141 0.479,-0.148 0.474,-0.162C0.473,-0.165 0.472,-0.169 0.472,-0.172Z" style="fill:rgb(222,222,237);fill-rule:nonzero;"/>
        </g>
        <g transform="matrix(157.182,0,0,157.182,1275.56,1260.29)">
            <path d="M0.716,-0.03L0.716,0.033L0.383,0.033C0.292,0.033 0.215,0.002 0.151,-0.06C0.15,-0.062 0.148,-0.063 0.147,-0.064C0.084,-0.131 0.052,-0.21 0.05,-0.3L0.05,-0.633L0.117,-0.633L0.117,-0.297C0.117,-0.221 0.145,-0.157 0.2,-0.104C0.252,-0.055 0.313,-0.03 0.383,-0.03L0.716,-0.03ZM0.505,-0.141C0.505,-0.156 0.512,-0.165 0.527,-0.17C0.531,-0.171 0.535,-0.172 0.538,-0.172C0.554,-0.172 0.565,-0.165 0.57,-0.151C0.571,-0.148 0.572,-0.144 0.572,-0.141C0.572,-0.127 0.565,-0.117 0.55,-0.111C0.546,-0.11 0.542,-0.109 0.538,-0.109C0.523,-0.109 0.512,-0.116 0.507,-0.131C0.506,-0.134 0.505,-0.138 0.505,-0.141Z" style="fill:rgb(222,222,237);fill-rule:nonzero;"/>
        </g>
        <g transform="matrix(157.182,0,0,157.182,1395.96,1260.29)">
            <path d="M0.05,-0.633L0.117,-0.633L0.117,-0.297C0.117,-0.221 0.145,-0.157 0.2,-0.104C0.252,-0.055 0.313,-0.03 0.383,-0.03C0.459,-0.03 0.523,-0.058 0.576,-0.113C0.625,-0.165 0.65,-0.226 0.65,-0.297L0.65,-0.633L0.717,-0.633L0.717,-0.3C0.717,-0.209 0.685,-0.132 0.621,-0.067C0.552,-0.002 0.473,0.031 0.383,0.033C0.292,0.033 0.215,0.002 0.151,-0.06C0.15,-0.062 0.148,-0.063 0.147,-0.064C0.084,-0.131 0.052,-0.21 0.05,-0.3L0.05,-0.633ZM0.194,-0.459C0.194,-0.473 0.201,-0.483 0.216,-0.489C0.22,-0.49 0.224,-0.491 0.228,-0.491C0.243,-0.491 0.254,-0.484 0.259,-0.469C0.26,-0.466 0.261,-0.462 0.261,-0.459C0.261,-0.444 0.254,-0.435 0.239,-0.43C0.235,-0.429 0.231,-0.428 0.228,-0.428C0.212,-0.428 0.201,-0.435 0.196,-0.449C0.195,-0.452 0.194,-0.456 0.194,-0.459Z" style="fill:rgb(222,222,237);fill-rule:nonzero;"/>
        </g>
        <g transform="matrix(157.182,0,0,157.182,1516.36,1260.29)">
            <path d="M0.05,-0.57L0.05,-0.633L0.716,-0.633L0.716,-0.57L0.05,-0.57ZM0.05,0.033L0.05,-0.03L0.716,-0.03L0.716,0.033L0.05,0.033Z" style="fill:rgb(222,222,237);fill-rule:nonzero;"/>
        </g>
        <g transform="matrix(157.182,0,0,157.182,1636.76,1260.29)">
            <path d="M0.05,0.033L0.05,-0.034L0.386,-0.034C0.462,-0.034 0.526,-0.062 0.579,-0.117C0.628,-0.169 0.653,-0.23 0.653,-0.3C0.653,-0.376 0.625,-0.44 0.57,-0.493C0.518,-0.542 0.457,-0.567 0.386,-0.567L0.05,-0.567L0.05,-0.634L0.383,-0.634C0.474,-0.634 0.551,-0.602 0.616,-0.538C0.681,-0.469 0.714,-0.39 0.716,-0.3C0.716,-0.209 0.685,-0.132 0.623,-0.068C0.621,-0.067 0.62,-0.065 0.619,-0.064C0.552,-0.001 0.473,0.031 0.383,0.033L0.05,0.033ZM0.194,-0.141C0.194,-0.155 0.201,-0.165 0.216,-0.17C0.22,-0.171 0.224,-0.172 0.228,-0.172C0.243,-0.172 0.254,-0.165 0.259,-0.151C0.26,-0.148 0.261,-0.144 0.261,-0.141C0.261,-0.126 0.254,-0.116 0.239,-0.111C0.235,-0.11 0.231,-0.109 0.228,-0.109C0.213,-0.109 0.203,-0.116 0.196,-0.13C0.195,-0.134 0.194,-0.138 0.194,-0.141Z" style="fill:rgb(222,222,237);fill-rule:nonzero;"/>
        </g>
        <g transform="matrix(157.182,0,0,157.182,1757.17,1260.29)">
            <path d="M0.05,-0.633L0.117,-0.633L0.117,-0.297C0.117,-0.221 0.145,-0.157 0.2,-0.104C0.252,-0.055 0.313,-0.03 0.383,-0.03C0.459,-0.03 0.523,-0.058 0.576,-0.113C0.625,-0.165 0.65,-0.226 0.65,-0.297L0.65,-0.633L0.717,-0.633L0.717,-0.3C0.717,-0.209 0.685,-0.132 0.621,-0.067C0.552,-0.002 0.473,0.031 0.383,0.033C0.292,0.033 0.215,0.002 0.151,-0.06C0.15,-0.062 0.148,-0.063 0.147,-0.064C0.084,-0.131 0.052,-0.21 0.05,-0.3L0.05,-0.633ZM0.505,-0.459C0.505,-0.474 0.512,-0.484 0.527,-0.489C0.531,-0.49 0.535,-0.491 0.538,-0.491C0.553,-0.491 0.563,-0.484 0.57,-0.47C0.571,-0.466 0.572,-0.462 0.572,-0.459C0.572,-0.445 0.565,-0.435 0.55,-0.43C0.546,-0.429 0.542,-0.428 0.538,-0.428C0.523,-0.428 0.512,-0.435 0.507,-0.449C0.506,-0.452 0.505,-0.456 0.505,-0.459Z" style="fill:rgb(222,222,237);fill-rule:nonzero;"/>
        </g>
        <g transform="matrix(157.182,0,0,157.182,1877.57,1260.29)">
            <path d="M0.05,-0.57L0.05,-0.633L0.716,-0.633L0.716,-0.57L0.05,-0.57ZM0.05,0.033L0.05,-0.03L0.716,-0.03L0.716,0.033L0.05,0.033Z" style="fill:rgb(222,222,237);fill-rule:nonzero;"/>
        </g>
        <g transform="matrix(157.182,0,0,157.182,1997.97,1260.29)">
            <path d="M0.717,-0.3C0.717,-0.209 0.685,-0.132 0.621,-0.067C0.552,-0.002 0.473,0.031 0.383,0.033C0.292,0.033 0.214,0.001 0.149,-0.063C0.084,-0.13 0.051,-0.209 0.05,-0.3C0.05,-0.391 0.081,-0.468 0.143,-0.532C0.145,-0.533 0.146,-0.535 0.147,-0.536C0.214,-0.599 0.293,-0.631 0.383,-0.633C0.474,-0.633 0.552,-0.601 0.617,-0.538C0.682,-0.469 0.715,-0.39 0.717,-0.3ZM0.65,-0.303C0.65,-0.379 0.622,-0.443 0.567,-0.496C0.515,-0.545 0.454,-0.57 0.383,-0.57C0.307,-0.57 0.243,-0.542 0.19,-0.487C0.141,-0.435 0.117,-0.374 0.117,-0.303L0.117,-0.297C0.117,-0.221 0.145,-0.157 0.2,-0.104C0.252,-0.055 0.313,-0.03 0.383,-0.03C0.459,-0.03 0.523,-0.058 0.576,-0.113C0.625,-0.165 0.65,-0.226 0.65,-0.297L0.65,-0.303ZM0.472,-0.172C0.472,-0.187 0.479,-0.197 0.494,-0.202C0.498,-0.203 0.502,-0.204 0.505,-0.204C0.52,-0.204 0.53,-0.197 0.537,-0.183C0.538,-0.179 0.539,-0.175 0.539,-0.172C0.539,-0.158 0.532,-0.148 0.517,-0.143C0.513,-0.142 0.509,-0.141 0.505,-0.141C0.49,-0.141 0.479,-0.148 0.474,-0.162C0.473,-0.165 0.472,-0.169 0.472,-0.172Z" style="fill:rgb(222,222,237);fill-rule:nonzero;"/>
        </g>
        <g transform="matrix(157.182,0,0,157.182,2118.37,1260.29)">
            <path d="M0.05,-0.633L0.117,-0.633L0.117,-0.297C0.117,-0.221 0.145,-0.157 0.2,-0.104C0.252,-0.055 0.313,-0.03 0.383,-0.03C0.459,-0.03 0.523,-0.058 0.576,-0.113C0.625,-0.165 0.65,-0.226 0.65,-0.297L0.65,-0.633L0.717,-0.633L0.717,-0.3C0.717,-0.209 0.685,-0.132 0.621,-0.067C0.552,-0.002 0.473,0.031 0.383,0.033C0.292,0.033 0.215,0.002 0.151,-0.06C0.15,-0.062 0.148,-0.063 0.147,-0.064C0.084,-0.131 0.052,-0.21 0.05,-0.3L0.05,-0.633ZM0.194,-0.459C0.194,-0.473 0.201,-0.483 0.216,-0.489C0.22,-0.49 0.224,-0.491 0.228,-0.491C0.243,-0.491 0.254,-0.484 0.259,-0.469C0.26,-0.466 0.261,-0.462 0.261,-0.459C0.261,-0.444 0.254,-0.435 0.239,-0.43C0.235,-0.429 0.231,-0.428 0.228,-0.428C0.212,-0.428 0.201,-0.435 0.196,-0.449C0.195,-0.452 0.194,-0.456 0.194,-0.459Z" style="fill:rgb(222,222,237);fill-rule:nonzero;"/>
        </g>
        <g transform="matrix(157.182,0,0,157.182,2238.77,1260.29)">
            <path d="M0.716,-0.634L0.716,-0.567L0.38,-0.567C0.304,-0.567 0.24,-0.539 0.187,-0.484C0.138,-0.432 0.113,-0.371 0.113,-0.3C0.113,-0.224 0.141,-0.16 0.196,-0.107C0.248,-0.058 0.309,-0.034 0.38,-0.034L0.716,-0.034L0.716,0.033L0.383,0.033C0.292,0.033 0.214,0.001 0.149,-0.063C0.084,-0.13 0.051,-0.209 0.05,-0.3C0.05,-0.391 0.081,-0.468 0.143,-0.532C0.145,-0.533 0.146,-0.535 0.147,-0.536C0.216,-0.599 0.294,-0.631 0.383,-0.634L0.716,-0.634ZM0.505,-0.141C0.505,-0.156 0.512,-0.165 0.527,-0.17C0.531,-0.171 0.535,-0.172 0.538,-0.172C0.554,-0.172 0.565,-0.165 0.57,-0.151C0.571,-0.148 0.572,-0.144 0.572,-0.141C0.572,-0.127 0.565,-0.117 0.55,-0.111C0.546,-0.11 0.542,-0.109 0.538,-0.109C0.523,-0.109 0.512,-0.116 0.507,-0.131C0.506,-0.134 0.505,-0.138 0.505,-0.141Z" style="fill:rgb(222,222,237);fill-rule:nonzero;"/>
        </g>
        <g transform="matrix(157.182,0,0,157.182,2359.17,1260.29)">
            <path d="M0.717,-0.3C0.717,-0.209 0.685,-0.132 0.621,-0.067C0.552,-0.002 0.473,0.031 0.383,0.033C0.292,0.033 0.214,0.001 0.149,-0.063C0.084,-0.13 0.051,-0.209 0.05,-0.3C0.05,-0.391 0.081,-0.468 0.143,-0.532C0.145,-0.533 0.146,-0.535 0.147,-0.536C0.214,-0.599 0.293,-0.631 0.383,-0.633C0.474,-0.633 0.552,-0.601 0.617,-0.538C0.682,-0.469 0.715,-0.39 0.717,-0.3ZM0.65,-0.303C0.65,-0.379 0.622,-0.443 0.567,-0.496C0.515,-0.545 0.454,-0.57 0.383,-0.57C0.307,-0.57 0.243,-0.542 0.19,-0.487C0.141,-0.435 0.117,-0.374 0.117,-0.303L0.117,-0.297C0.117,-0.221 0.145,-0.157 0.2,-0.104C0.252,-0.055 0.313,-0.03 0.383,-0.03C0.459,-0.03 0.523,-0.058 0.576,-0.113C0.625,-0.165 0.65,-0.226 0.65,-0.297L0.65,-0.303ZM0.472,-0.172C0.472,-0.187 0.479,-0.197 0.494,-0.202C0.498,-0.203 0.502,-0.204 0.505,-0.204C0.52,-0.204 0.53,-0.197 0.537,-0.183C0.538,-0.179 0.539,-0.175 0.539,-0.172C0.539,-0.158 0.532,-0.148 0.517,-0.143C0.513,-0.142 0.509,-0.141 0.505,-0.141C0.49,-0.141 0.479,-0.148 0.474,-0.162C0.473,-0.165 0.472,-0.169 0.472,-0.172Z" style="fill:rgb(222,222,237);fill-rule:nonzero;"/>
        </g>
        <g transform="matrix(157.182,0,0,157.182,2479.57,1260.29)">
            <path d="M0.05,-0.57L0.05,-0.633L0.716,-0.633L0.716,-0.57L0.05,-0.57ZM0.05,0.033L0.05,-0.03L0.716,-0.03L0.716,0.033L0.05,0.033Z" style="fill:rgb(222,222,237);fill-rule:nonzero;"/>
        </g>
        <g transform="matrix(157.182,0,0,157.182,2599.98,1260.29)">
            <path d="M0.716,-0.634L0.716,-0.567L0.38,-0.567C0.304,-0.567 0.24,-0.539 0.187,-0.484C0.138,-0.432 0.113,-0.371 0.113,-0.3C0.113,-0.224 0.141,-0.16 0.196,-0.107C0.248,-0.058 0.309,-0.034 0.38,-0.034L0.716,-0.034L0.716,0.033L0.383,0.033C0.292,0.033 0.214,0.001 0.149,-0.063C0.084,-0.13 0.051,-0.209 0.05,-0.3C0.05,-0.391 0.081,-0.468 0.143,-0.532C0.145,-0.533 0.146,-0.535 0.147,-0.536C0.216,-0.599 0.294,-0.631 0.383,-0.634L0.716,-0.634ZM0.228,-0.172C0.228,-0.187 0.235,-0.197 0.25,-0.202C0.254,-0.203 0.258,-0.204 0.261,-0.204C0.276,-0.204 0.286,-0.197 0.293,-0.183C0.294,-0.179 0.295,-0.175 0.295,-0.172C0.295,-0.158 0.288,-0.148 0.273,-0.143C0.269,-0.142 0.265,-0.141 0.261,-0.141C0.246,-0.141 0.235,-0.148 0.23,-0.162C0.229,-0.165 0.228,-0.169 0.228,-0.172Z" style="fill:rgb(222,222,237);fill-rule:nonzero;"/>
        </g>
        <g transform="matrix(157.182,0,0,157.182,2720.38,1260.29)">
            <path d="M0.717,-0.3C0.717,-0.209 0.685,-0.132 0.621,-0.067C0.552,-0.002 0.473,0.031 0.383,0.033C0.292,0.033 0.214,0.001 0.149,-0.063C0.084,-0.13 0.051,-0.209 0.05,-0.3C0.05,-0.391 0.082,-0.469 0.146,-0.534C0.213,-0.599 0.292,-0.632 0.383,-0.633C0.474,-0.633 0.552,-0.601 0.617,-0.538C0.682,-0.469 0.715,-0.39 0.717,-0.3ZM0.65,-0.303C0.65,-0.379 0.622,-0.443 0.567,-0.496C0.515,-0.545 0.454,-0.57 0.383,-0.57C0.307,-0.57 0.243,-0.542 0.19,-0.487C0.141,-0.435 0.117,-0.374 0.117,-0.303L0.117,-0.297C0.117,-0.221 0.145,-0.157 0.2,-0.104C0.252,-0.055 0.313,-0.03 0.383,-0.03C0.459,-0.03 0.523,-0.058 0.576,-0.113C0.625,-0.165 0.65,-0.226 0.65,-0.297L0.65,-0.303ZM0.472,-0.421C0.472,-0.436 0.479,-0.446 0.494,-0.451C0.498,-0.452 0.502,-0.453 0.505,-0.453C0.52,-0.453 0.53,-0.446 0.537,-0.432C0.538,-0.428 0.539,-0.424 0.539,-0.421C0.539,-0.407 0.532,-0.397 0.517,-0.392C0.513,-0.391 0.509,-0.39 0.505,-0.39C0.49,-0.39 0.479,-0.397 0.474,-0.411C0.473,-0.414 0.472,-0.418 0.472,-0.421Z" style="fill:rgb(222,222,237);fill-rule:nonzero;"/>
        </g>
        <g transform="matrix(157.182,0,0,157.182,2840.78,1260.29)">
            <path d="M0.716,-0.03L0.716,0.033L0.383,0.033C0.292,0.033 0.215,0.002 0.151,-0.06C0.15,-0.062 0.148,-0.063 0.147,-0.064C0.084,-0.131 0.052,-0.21 0.05,-0.3L0.05,-0.633L0.117,-0.633L0.117,-0.297C0.117,-0.221 0.145,-0.157 0.2,-0.104C0.252,-0.055 0.313,-0.03 0.383,-0.03L0.716,-0.03ZM0.194,-0.459C0.194,-0.473 0.201,-0.483 0.216,-0.489C0.22,-0.49 0.224,-0.491 0.228,-0.491C0.243,-0.491 0.254,-0.484 0.259,-0.469C0.26,-0.466 0.261,-0.462 0.261,-0.459C0.261,-0.444 0.254,-0.435 0.239,-0.43C0.235,-0.429 0.231,-0.428 0.228,-0.428C0.212,-0.428 0.201,-0.435 0.196,-0.449C0.195,-0.452 0.194,-0.456 0.194,-0.459Z" style="fill:rgb(222,222,237);fill-rule:nonzero;"/>
        </g>
        <g transform="matrix(157.182,0,0,157.182,2961.18,1260.29)">
            <path d="M0.717,-0.3C0.717,-0.209 0.685,-0.132 0.621,-0.067C0.552,-0.002 0.473,0.031 0.383,0.033C0.292,0.033 0.214,0.001 0.149,-0.063C0.084,-0.13 0.051,-0.209 0.05,-0.3C0.05,-0.391 0.081,-0.468 0.143,-0.532C0.145,-0.533 0.146,-0.535 0.147,-0.536C0.214,-0.599 0.293,-0.631 0.383,-0.633C0.474,-0.633 0.552,-0.601 0.617,-0.538C0.682,-0.469 0.715,-0.39 0.717,-0.3ZM0.65,-0.303C0.65,-0.379 0.622,-0.443 0.567,-0.496C0.515,-0.545 0.454,-0.57 0.383,-0.57C0.307,-0.57 0.243,-0.542 0.19,-0.487C0.141,-0.435 0.117,-0.374 0.117,-0.303L0.117,-0.297C0.117,-0.221 0.145,-0.157 0.2,-0.104C0.252,-0.055 0.313,-0.03 0.383,-0.03C0.459,-0.03 0.523,-0.058 0.576,-0.113C0.625,-0.165 0.65,-0.226 0.65,-0.297L0.65,-0.303ZM0.472,-0.172C0.472,-0.187 0.479,-0.197 0.494,-0.202C0.498,-0.203 0.502,-0.204 0.505,-0.204C0.52,-0.204 0.53,-0.197 0.537,-0.183C0.538,-0.179 0.539,-0.175 0.539,-0.172C0.539,-0.158 0.532,-0.148 0.517,-0.143C0.513,-0.142 0.509,-0.141 0.505,-0.141C0.49,-0.141 0.479,-0.148 0.474,-0.162C0.473,-0.165 0.472,-0.169 0.472,-0.172Z" style="fill:rgb(222,222,237);fill-rule:nonzero;"/>
        </g>
        <g transform="matrix(157.182,0,0,157.182,3081.58,1260.29)">
            <path d="M0.717,-0.3C0.717,-0.209 0.685,-0.132 0.621,-0.067C0.552,-0.002 0.473,0.031 0.383,0.033C0.292,0.033 0.214,0.001 0.149,-0.063C0.084,-0.13 0.051,-0.209 0.05,-0.3C0.05,-0.391 0.081,-0.468 0.143,-0.532C0.145,-0.533 0.146,-0.535 0.147,-0.536C0.214,-0.599 0.293,-0.631 0.383,-0.633C0.474,-0.633 0.552,-0.601 0.617,-0.538C0.682,-0.469 0.715,-0.39 0.717,-0.3ZM0.65,-0.303C0.65,-0.379 0.622,-0.443 0.567,-0.496C0.515,-0.545 0.454,-0.57 0.383,-0.57C0.307,-0.57 0.243,-0.542 0.19,-0.487C0.141,-0.435 0.117,-0.374 0.117,-0.303L0.117,-0.297C0.117,-0.221 0.145,-0.157 0.2,-0.104C0.252,-0.055 0.313,-0.03 0.383,-0.03C0.459,-0.03 0.523,-0.058 0.576,-0.113C0.625,-0.165 0.65,-0.226 0.65,-0.297L0.65,-0.303ZM0.472,-0.172C0.472,-0.187 0.479,-0.197 0.494,-0.202C0.498,-0.203 0.502,-0.204 0.505,-0.204C0.52,-0.204 0.53,-0.197 0.537,-0.183C0.538,-0.179 0.539,-0.175 0.539,-0.172C0.539,-0.158 0.532,-0.148 0.517,-0.143C0.513,-0.142 0.509,-0.141 0.505,-0.141C0.49,-0.141 0.479,-0.148 0.474,-0.162C0.473,-0.165 0.472,-0.169 0.472,-0.172Z" style="fill:rgb(222,222,237);fill-rule:nonzero;"/>
        </g>
        <g transform="matrix(157.182,0,0,157.182,3201.98,1260.29)">
            <path d="M0.05,-0.633L0.117,-0.633L0.117,-0.297C0.117,-0.221 0.145,-0.157 0.2,-0.104C0.252,-0.055 0.313,-0.03 0.383,-0.03C0.459,-0.03 0.523,-0.058 0.576,-0.113C0.625,-0.165 0.65,-0.226 0.65,-0.297L0.65,-0.633L0.717,-0.633L0.717,-0.3C0.717,-0.209 0.685,-0.132 0.621,-0.067C0.552,-0.002 0.473,0.031 0.383,0.033C0.292,0.033 0.215,0.002 0.151,-0.06C0.15,-0.062 0.148,-0.063 0.147,-0.064C0.084,-0.131 0.052,-0.21 0.05,-0.3L0.05,-0.633ZM0.194,-0.459C0.194,-0.473 0.201,-0.483 0.216,-0.489C0.22,-0.49 0.224,-0.491 0.228,-0.491C0.243,-0.491 0.254,-0.484 0.259,-0.469C0.26,-0.466 0.261,-0.462 0.261,-0.459C0.261,-0.444 0.254,-0.435 0.239,-0.43C0.235,-0.429 0.231,-0.428 0.228,-0.428C0.212,-0.428 0.201,-0.435 0.196,-0.449C0.195,-0.452 0.194,-0.456 0.194,-0.459Z" style="fill:rgb(222,222,237);fill-rule:nonzero;"/>
        </g>
        <g transform="matrix(157.182,0,0,157.182,3322.38,1260.29)">
            <path d="M0.05,0.033L0.05,-0.034L0.386,-0.034C0.462,-0.034 0.526,-0.062 0.579,-0.117C0.628,-0.169 0.653,-0.23 0.653,-0.3C0.653,-0.376 0.625,-0.44 0.57,-0.493C0.518,-0.542 0.457,-0.567 0.386,-0.567L0.05,-0.567L0.05,-0.634L0.383,-0.634C0.474,-0.634 0.551,-0.602 0.616,-0.538C0.681,-0.469 0.714,-0.39 0.716,-0.3C0.716,-0.209 0.685,-0.132 0.623,-0.068C0.621,-0.067 0.62,-0.065 0.619,-0.064C0.552,-0.001 0.473,0.031 0.383,0.033L0.05,0.033ZM0.472,-0.421C0.472,-0.436 0.479,-0.446 0.494,-0.451C0.498,-0.452 0.502,-0.453 0.505,-0.453C0.52,-0.453 0.53,-0.446 0.537,-0.432C0.538,-0.428 0.539,-0.424 0.539,-0.421C0.539,-0.407 0.532,-0.397 0.517,-0.392C0.513,-0.391 0.509,-0.39 0.505,-0.39C0.49,-0.39 0.479,-0.397 0.474,-0.411C0.473,-0.414 0.472,-0.418 0.472,-0.421Z" style="fill:rgb(222,222,237);fill-rule:nonzero;"/>
        </g>
        <g transform="matrix(157.182,0,0,157.182,3442.78,1260.29)">
            <path d="M0.05,-0.57L0.05,-0.633L0.716,-0.633L0.716,-0.57L0.05,-0.57ZM0.05,0.033L0.05,-0.03L0.716,-0.03L0.716,0.033L0.05,0.033Z" style="fill:rgb(222,222,237);fill-rule:nonzero;"/>
        </g>
        <g transform="matrix(157.182,0,0,157.182,3563.19,1260.29)">
            <path d="M0.716,-0.634L0.716,-0.567L0.38,-0.567C0.304,-0.567 0.24,-0.539 0.187,-0.484C0.138,-0.432 0.113,-0.371 0.113,-0.3C0.113,-0.224 0.141,-0.16 0.196,-0.107C0.248,-0.058 0.309,-0.034 0.38,-0.034L0.716,-0.034L0.716,0.033L0.383,0.033C0.292,0.033 0.214,0.001 0.149,-0.063C0.084,-0.13 0.051,-0.209 0.05,-0.3C0.05,-0.391 0.081,-0.468 0.143,-0.532C0.145,-0.533 0.146,-0.535 0.147,-0.536C0.216,-0.599 0.294,-0.631 0.383,-0.634L0.716,-0.634ZM0.228,-0.172C0.228,-0.187 0.235,-0.197 0.25,-0.202C0.254,-0.203 0.258,-0.204 0.261,-0.204C0.276,-0.204 0.286,-0.197 0.293,-0.183C0.294,-0.179 0.295,-0.175 0.295,-0.172C0.295,-0.158 0.288,-0.148 0.273,-0.143C0.269,-0.142 0.265,-0.141 0.261,-0.141C0.246,-0.141 0.235,-0.148 0.23,-0.162C0.229,-0.165 0.228,-0.169 0.228,-0.172Z" style="fill:rgb(222,222,237);fill-rule:nonzero;"/>
        </g>
        <g transform="matrix(157.182,0,0,157.182,3683.59,1260.29)">
            <path d="M0.716,-0.03L0.716,0.033L0.383,0.033C0.292,0.033 0.215,0.002 0.151,-0.06C0.15,-0.062 0.148,-0.063 0.147,-0.064C0.084,-0.131 0.052,-0.21 0.05,-0.3L0.05,-0.633L0.117,-0.633L0.117,-0.297C0.117,-0.221 0.145,-0.157 0.2,-0.104C0.252,-0.055 0.313,-0.03 0.383,-0.03L0.716,-0.03ZM0.194,-0.459C0.194,-0.473 0.201,-0.483 0.216,-0.489C0.22,-0.49 0.224,-0.491 0.228,-0.491C0.243,-0.491 0.254,-0.484 0.259,-0.469C0.26,-0.466 0.261,-0.462 0.261,-0.459C0.261,-0.444 0.254,-0.435 0.239,-0.43C0.235,-0.429 0.231,-0.428 0.228,-0.428C0.212,-0.428 0.201,-0.435 0.196,-0.449C0.195,-0.452 0.194,-0.456 0.194,-0.459Z" style="fill:rgb(222,222,237);fill-rule:nonzero;"/>
        </g>
        <g transform="matrix(157.182,0,0,157.182,3803.99,1260.29)">
            <path d="M0.717,-0.3C0.717,-0.209 0.685,-0.132 0.621,-0.067C0.552,-0.002 0.473,0.031 0.383,0.033C0.292,0.033 0.214,0.001 0.149,-0.063C0.084,-0.13 0.051,-0.209 0.05,-0.3C0.05,-0.391 0.081,-0.468 0.143,-0.532C0.145,-0.533 0.146,-0.535 0.147,-0.536C0.214,-0.599 0.293,-0.631 0.383,-0.633C0.474,-0.633 0.552,-0.601 0.617,-0.538C0.682,-0.469 0.715,-0.39 0.717,-0.3ZM0.65,-0.303C0.65,-0.379 0.622,-0.443 0.567,-0.496C0.515,-0.545 0.454,-0.57 0.383,-0.57C0.307,-0.57 0.243,-0.542 0.19,-0.487C0.141,-0.435 0.117,-0.374 0.117,-0.303L0.117,-0.297C0.117,-0.221 0.145,-0.157 0.2,-0.104C0.252,-0.055 0.313,-0.03 0.383,-0.03C0.459,-0.03 0.523,-0.058 0.576,-0.113C0.625,-0.165 0.65,-0.226 0.65,-0.297L0.65,-0.303ZM0.472,-0.172C0.472,-0.187 0.479,-0.197 0.494,-0.202C0.498,-0.203 0.502,-0.204 0.505,-0.204C0.52,-0.204 0.53,-0.197 0.537,-0.183C0.538,-0.179 0.539,-0.175 0.539,-0.172C0.539,-0.158 0.532,-0.148 0.517,-0.143C0.513,-0.142 0.509,-0.141 0.505,-0.141C0.49,-0.141 0.479,-0.148 0.474,-0.162C0.473,-0.165 0.472,-0.169 0.472,-0.172Z" style="fill:rgb(222,222,237);fill-rule:nonzero;"/>
        </g>
        <g transform="matrix(157.182,0,0,157.182,3924.39,1260.29)">
            <path d="M0.05,-0.633L0.117,-0.633L0.117,-0.297C0.117,-0.221 0.145,-0.157 0.2,-0.104C0.252,-0.055 0.313,-0.03 0.383,-0.03C0.459,-0.03 0.523,-0.058 0.576,-0.113C0.625,-0.165 0.65,-0.226 0.65,-0.297L0.65,-0.633L0.717,-0.633L0.717,-0.3C0.717,-0.209 0.685,-0.132 0.621,-0.067C0.552,-0.002 0.473,0.031 0.383,0.033C0.292,0.033 0.215,0.002 0.151,-0.06C0.15,-0.062 0.148,-0.063 0.147,-0.064C0.084,-0.131 0.052,-0.21 0.05,-0.3L0.05,-0.633ZM0.472,-0.172C0.472,-0.187 0.479,-0.197 0.494,-0.202C0.498,-0.203 0.502,-0.204 0.505,-0.204C0.52,-0.204 0.53,-0.197 0.537,-0.183C0.538,-0.179 0.539,-0.175 0.539,-0.172C0.539,-0.158 0.532,-0.148 0.517,-0.143C0.513,-0.142 0.509,-0.141 0.505,-0.141C0.49,-0.141 0.479,-0.148 0.474,-0.162C0.473,-0.165 0.472,-0.169 0.472,-0.172Z" style="fill:rgb(222,222,237);fill-rule:nonzero;"/>
        </g>
        <g transform="matrix(157.182,0,0,157.182,4044.79,1260.29)">
            <path d="M0.05,-0.57L0.05,-0.633L0.716,-0.633L0.716,-0.57L0.05,-0.57ZM0.05,0.033L0.05,-0.03L0.716,-0.03L0.716,0.033L0.05,0.033Z" style="fill:rgb(222,222,237);fill-rule:nonzero;"/>
        </g>
        <g transform="matrix(157.182,0,0,157.182,4165.19,1260.29)">
            <path d="M0.05,-0.633L0.117,-0.633L0.117,-0.297C0.117,-0.221 0.145,-0.157 0.2,-0.104C0.252,-0.055 0.313,-0.03 0.383,-0.03C0.459,-0.03 0.523,-0.058 0.576,-0.113C0.625,-0.165 0.65,-0.226 0.65,-0.297L0.65,-0.633L0.717,-0.633L0.717,-0.3C0.717,-0.209 0.685,-0.132 0.621,-0.067C0.552,-0.002 0.473,0.031 0.383,0.033C0.292,0.033 0.215,0.002 0.151,-0.06C0.15,-0.062 0.148,-0.063 0.147,-0.064C0.084,-0.131 0.052,-0.21 0.05,-0.3L0.05,-0.633ZM0.194,-0.459C0.194,-0.473 0.201,-0.483 0.216,-0.489C0.22,-0.49 0.224,-0.491 0.228,-0.491C0.243,-0.491 0.254,-0.484 0.259,-0.469C0.26,-0.466 0.261,-0.462 0.261,-0.459C0.261,-0.444 0.254,-0.435 0.239,-0.43C0.235,-0.429 0.231,-0.428 0.228,-0.428C0.212,-0.428 0.201,-0.435 0.196,-0.449C0.195,-0.452 0.194,-0.456 0.194,-0.459Z" style="fill:rgb(222,222,237);fill-rule:nonzero;"/>
        </g>
        <g transform="matrix(157.182,0,0,157.182,4285.59,1260.29)">
            <path d="M0.05,0.033L0.05,-0.034L0.386,-0.034C0.462,-0.034 0.526,-0.062 0.579,-0.117C0.628,-0.169 0.653,-0.23 0.653,-0.3C0.653,-0.376 0.625,-0.44 0.57,-0.493C0.518,-0.542 0.457,-0.567 0.386,-0.567L0.05,-0.567L0.05,-0.634L0.383,-0.634C0.474,-0.634 0.551,-0.602 0.616,-0.538C0.681,-0.469 0.714,-0.39 0.716,-0.3C0.716,-0.209 0.685,-0.132 0.623,-0.068C0.621,-0.067 0.62,-0.065 0.619,-0.064C0.552,-0.001 0.473,0.031 0.383,0.033L0.05,0.033ZM0.472,-0.421C0.472,-0.436 0.479,-0.446 0.494,-0.451C0.498,-0.452 0.502,-0.453 0.505,-0.453C0.52,-0.453 0.53,-0.446 0.537,-0.432C0.538,-0.428 0.539,-0.424 0.539,-0.421C0.539,-0.407 0.532,-0.397 0.517,-0.392C0.513,-0.391 0.509,-0.39 0.505,-0.39C0.49,-0.39 0.479,-0.397 0.474,-0.411C0.473,-0.414 0.472,-0.418 0.472,-0.421Z" style="fill:rgb(222,222,237);fill-rule:nonzero;"/>
        </g>
        <g transform="matrix(157.182,0,0,157.182,4406,1260.29)">
            <path d="M0.05,0.033L0.05,-0.034L0.386,-0.034C0.462,-0.034 0.526,-0.062 0.579,-0.117C0.628,-0.169 0.653,-0.23 0.653,-0.3C0.653,-0.376 0.625,-0.44 0.57,-0.493C0.518,-0.542 0.457,-0.567 0.386,-0.567L0.05,-0.567L0.05,-0.634L0.383,-0.634C0.474,-0.634 0.551,-0.602 0.616,-0.538C0.681,-0.469 0.714,-0.39 0.716,-0.3C0.716,-0.209 0.685,-0.132 0.623,-0.068C0.621,-0.067 0.62,-0.065 0.619,-0.064C0.552,-0.001 0.473,0.031 0.383,0.033L0.05,0.033ZM0.472,-0.421C0.472,-0.436 0.479,-0.446 0.494,-0.451C0.498,-0.452 0.502,-0.453 0.505,-0.453C0.52,-0.453 0.53,-0.446 0.537,-0.432C0.538,-0.428 0.539,-0.424 0.539,-0.421C0.539,-0.407 0.532,-0.397 0.517,-0.392C0.513,-0.391 0.509,-0.39 0.505,-0.39C0.49,-0.39 0.479,-0.397 0.474,-0.411C0.473,-0.414 0.472,-0.418 0.472,-0.421Z" style="fill:rgb(222,222,237);fill-rule:nonzero;"/>
        </g>
        <g transform="matrix(157.182,0,0,157.182,4526.4,1260.29)">
            <path d="M0.05,-0.633L0.117,-0.633L0.117,-0.297C0.117,-0.221 0.145,-0.157 0.2,-0.104C0.252,-0.055 0.313,-0.03 0.383,-0.03C0.459,-0.03 0.523,-0.058 0.576,-0.113C0.625,-0.165 0.65,-0.226 0.65,-0.297L0.65,-0.633L0.717,-0.633L0.717,-0.3C0.717,-0.209 0.685,-0.132 0.621,-0.067C0.552,-0.002 0.473,0.031 0.383,0.033C0.292,0.033 0.215,0.002 0.151,-0.06C0.15,-0.062 0.148,-0.063 0.147,-0.064C0.084,-0.131 0.052,-0.21 0.05,-0.3L0.05,-0.633ZM0.194,-0.459C0.194,-0.473 0.201,-0.483 0.216,-0.489C0.22,-0.49 0.224,-0.491 0.228,-0.491C0.243,-0.491 0.254,-0.484 0.259,-0.469C0.26,-0.466 0.261,-0.462 0.261,-0.459C0.261,-0.444 0.254,-0.435 0.239,-0.43C0.235,-0.429 0.231,-0.428 0.228,-0.428C0.212,-0.428 0.201,-0.435 0.196,-0.449C0.195,-0.452 0.194,-0.456 0.194,-0.459Z" style="fill:rgb(222,222,237);fill-rule:nonzero;"/>
        </g>
        <g transform="matrix(157.182,0,0,157.182,4646.8,1260.29)">
            <path d="M0.653,-0.633L0.716,-0.633L0.716,-0.3C0.716,-0.209 0.685,-0.132 0.623,-0.068C0.621,-0.067 0.62,-0.065 0.619,-0.064C0.552,-0.001 0.473,0.031 0.383,0.033L0.05,0.033L0.05,-0.034L0.386,-0.034C0.462,-0.034 0.526,-0.062 0.579,-0.117C0.628,-0.169 0.653,-0.23 0.653,-0.3L0.653,-0.633ZM0.194,-0.459C0.194,-0.473 0.201,-0.483 0.216,-0.489C0.22,-0.49 0.224,-0.491 0.228,-0.491C0.243,-0.491 0.254,-0.484 0.259,-0.469C0.26,-0.466 0.261,-0.462 0.261,-0.459C0.261,-0.444 0.254,-0.435 0.239,-0.43C0.235,-0.429 0.231,-0.428 0.228,-0.428C0.212,-0.428 0.201,-0.435 0.196,-0.449C0.195,-0.452 0.194,-0.456 0.194,-0.459Z" style="fill:rgb(222,222,237);fill-rule:nonzero;"/>
        </g>
        <g transform="matrix(157.182,0,0,157.182,4767.2,1260.29)">
            <path d="M0.653,-0.633L0.716,-0.633L0.716,-0.3C0.716,-0.209 0.685,-0.132 0.623,-0.068C0.621,-0.067 0.62,-0.065 0.619,-0.064C0.552,-0.001 0.473,0.031 0.383,0.033L0.05,0.033L0.05,-0.034L0.386,-0.034C0.462,-0.034 0.526,-0.062 0.579,-0.117C0.628,-0.169 0.653,-0.23 0.653,-0.3L0.653,-0.633ZM0.472,-0.172C0.472,-0.187 0.479,-0.197 0.494,-0.202C0.498,-0.203 0.502,-0.204 0.505,-0.204C0.52,-0.204 0.53,-0.197 0.537,-0.183C0.538,-0.179 0.539,-0.175 0.539,-0.172C0.539,-0.158 0.532,-0.148 0.517,-0.143C0.513,-0.142 0.509,-0.141 0.505,-0.141C0.49,-0.141 0.479,-0.148 0.474,-0.162C0.473,-0.165 0.472,-0.169 0.472,-0.172Z" style="fill:rgb(222,222,237);fill-rule:nonzero;"/>
        </g>
    </g>
</svg>
