<?xml version="1.0" encoding="UTF-8" standalone="no"?>
<!DOCTYPE svg PUBLIC "-//W3C//DTD SVG 1.1//EN" "http://www.w3.org/Graphics/SVG/1.1/DTD/svg11.dtd">
<svg width="100%" height="100%" viewBox="0 0 512 512" version="1.1" xmlns="http://www.w3.org/2000/svg" xmlns:xlink="http://www.w3.org/1999/xlink" xml:space="preserve" xmlns:serif="http://www.serif.com/" style="fill-rule:evenodd;clip-rule:evenodd;stroke-linejoin:round;stroke-miterlimit:2;">
    <g transform="matrix(1,0,0,1,-1920,0)">
        <rect id="misc" x="1920" y="0" width="512" height="512" style="fill:none;"/>
        <clipPath id="_clip1">
            <rect id="misc1" serif:id="misc" x="1920" y="0" width="512" height="512"/>
        </clipPath>
        <g clip-path="url(#_clip1)">
            <path d="M2176,0C2317.29,0 2432,114.71 2432,256C2432,397.29 2317.29,512 2176,512C2034.71,512 1920,397.29 1920,256C1920,114.71 2034.71,0 2176,0ZM2048,320C2048,390.645 2105.36,448 2176,448C2246.64,448 2304,390.645 2304,320L2048,320ZM2085.33,128C2111.82,128 2133.33,156.677 2133.33,192C2133.33,227.323 2111.82,256 2085.33,256C2058.84,256 2037.33,227.323 2037.33,192C2037.33,156.677 2058.84,128 2085.33,128ZM2266.67,128C2293.16,128 2314.67,156.677 2314.67,192C2314.67,227.323 2293.16,256 2266.67,256C2240.18,256 2218.67,227.323 2218.67,192C2218.67,156.677 2240.18,128 2266.67,128Z" style="fill:rgb(222,222,222);"/>
        </g>
    </g>
</svg>
