<?xml version="1.0" encoding="UTF-8" standalone="no"?>
<!DOCTYPE svg PUBLIC "-//W3C//DTD SVG 1.1//EN" "http://www.w3.org/Graphics/SVG/1.1/DTD/svg11.dtd">
<svg width="100%" height="100%" viewBox="0 0 512 512" version="1.1" xmlns="http://www.w3.org/2000/svg" xmlns:xlink="http://www.w3.org/1999/xlink" xml:space="preserve" xmlns:serif="http://www.serif.com/" style="fill-rule:evenodd;clip-rule:evenodd;stroke-linecap:round;stroke-miterlimit:100;">
    <g transform="matrix(1,0,0,1,-1280,-640)">
        <g id="social" transform="matrix(1,0,0,1,768,640)">
            <rect x="512" y="0" width="512" height="512" style="fill:none;"/>
            <clipPath id="_clip1">
                <rect x="512" y="0" width="512" height="512"/>
            </clipPath>
            <g clip-path="url(#_clip1)">
                <g transform="matrix(2.31812,0,0,2.31812,-2708.49,-155.087)">
                    <circle cx="1426.08" cy="177.293" r="36.812" style="fill:rgb(222,222,222);"/>
                </g>
                <g transform="matrix(2.31812,0,0,2.31812,-2367.15,-325.652)">
                    <circle cx="1426.08" cy="177.293" r="36.812" style="fill:rgb(222,222,222);"/>
                </g>
                <g transform="matrix(2.31812,0,0,2.31812,-2367.15,15.6815)">
                    <circle cx="1426.08" cy="177.293" r="36.812" style="fill:rgb(222,222,222);"/>
                </g>
                <g transform="matrix(1.33333,0,0,1.33333,-1280,-85.3333)">
                    <path d="M1664,128L1408,256L1664,384" style="fill:none;stroke:rgb(222,222,222);stroke-width:50px;"/>
                </g>
            </g>
        </g>
    </g>
</svg>
