<?xml version="1.0" encoding="UTF-8" standalone="no"?><!DOCTYPE svg PUBLIC "-//W3C//DTD SVG 1.1//EN" "http://www.w3.org/Graphics/SVG/1.1/DTD/svg11.dtd"><svg width="100%" height="100%" viewBox="0 0 367 367" version="1.1" xmlns="http://www.w3.org/2000/svg" xmlns:xlink="http://www.w3.org/1999/xlink" xml:space="preserve" xmlns:serif="http://www.serif.com/" style="fill-rule:evenodd;clip-rule:evenodd;stroke-linejoin:round;stroke-miterlimit:2;"><rect id="Discord" x="0" y="0" width="366.667" height="366.667" style="fill:none;"/><path id="Discord1" serif:id="Discord" d="M114.453,230.662c-0.257,-0.129 -0.515,-0.263 -0.772,-0.435c-0.393,-0.196 -0.589,-0.392 -0.785,-0.589c-3.532,-1.962 -5.494,-3.335 -5.494,-3.335c0,-0 9.418,15.696 34.336,23.152c-5.886,7.456 -13.146,16.285 -13.146,16.285c-43.361,-1.373 -59.842,-29.823 -59.842,-29.823c0,-63.178 28.253,-114.387 28.253,-114.387c28.254,-21.19 55.134,-20.602 55.134,-20.602l1.962,2.355c-35.317,10.202 -51.602,25.703 -51.602,25.703c0,-0 4.317,-2.355 11.576,-5.69c20.994,-9.222 37.671,-11.773 44.539,-12.361c1.177,-0.196 2.158,-0.393 3.335,-0.393c11.969,-1.569 25.507,-1.962 39.633,-0.392c18.64,2.158 38.653,7.652 59.058,18.836c-0,-0 -15.5,-14.716 -48.855,-24.918l2.747,-3.14c-0,0 26.88,-0.588 55.133,20.602c0,-0 28.254,51.209 28.254,114.387c-0,-0 -16.678,28.45 -60.039,29.823c0,-0 -7.063,-8.437 -12.949,-15.893c25.702,-7.259 35.513,-23.348 35.513,-23.348c-8.045,5.298 -15.697,9.026 -22.564,11.576c-9.81,4.12 -19.228,6.867 -28.449,8.437c-18.836,3.532 -36.102,2.551 -50.817,-0.196c-11.184,-2.159 -20.798,-5.298 -28.842,-8.437c-4.513,-1.766 -9.418,-3.924 -14.323,-6.671c-0.258,-0.172 -0.515,-0.306 -0.773,-0.435l-0.221,-0.111Zm32.19,-56.549c-11.184,-0 -20.013,9.81 -20.013,21.778c0,11.969 9.026,21.779 20.013,21.779c11.184,-0 20.013,-9.81 20.013,-21.779c0.196,-11.968 -8.829,-21.778 -20.013,-21.778Zm71.615,-0c-11.184,-0 -20.013,9.81 -20.013,21.778c-0,11.969 9.025,21.779 20.013,21.779c11.183,-0 20.013,-9.81 20.013,-21.779c-0,-11.968 -8.83,-21.778 -20.013,-21.778Z" style="fill:#7289da;fill-rule:nonzero;"/></svg>