<?xml version="1.0" encoding="UTF-8" standalone="no"?><!DOCTYPE svg PUBLIC "-//W3C//DTD SVG 1.1//EN" "http://www.w3.org/Graphics/SVG/1.1/DTD/svg11.dtd"><svg width="100%" height="100%" viewBox="0 0 367 367" version="1.1" xmlns="http://www.w3.org/2000/svg" xmlns:xlink="http://www.w3.org/1999/xlink" xml:space="preserve" xmlns:serif="http://www.serif.com/" style="fill-rule:evenodd;clip-rule:evenodd;stroke-linejoin:round;stroke-miterlimit:2;"><rect id="Reddit" x="0" y="0" width="366.667" height="366.667" style="fill:none;"/><path id="Reddit1" serif:id="Reddit" d="M297.917,185.146c-0,-13.895 -11.277,-25.172 -25.172,-25.172c-6.847,-0 -12.889,2.618 -17.319,7.048c-17.117,-12.284 -40.879,-20.339 -67.058,-21.346l11.478,-53.768l37.255,7.854c0.403,9.465 8.256,17.117 17.922,17.117c9.868,0 17.923,-8.055 17.923,-17.922c-0,-9.868 -8.055,-17.923 -17.923,-17.923c-7.048,-0 -13.089,4.028 -15.908,10.069l-41.685,-8.861c-1.209,-0.201 -2.417,0 -3.424,0.604c-1.007,0.604 -1.611,1.611 -2.013,2.82l-12.687,60.01c-26.783,0.805 -50.747,8.659 -68.066,21.346c-4.43,-4.229 -10.672,-7.048 -17.318,-7.048c-13.895,-0 -25.172,11.277 -25.172,25.172c0,10.27 6.041,18.929 14.902,22.957c-0.403,2.416 -0.604,5.034 -0.604,7.652c-0,38.664 44.907,69.878 100.487,69.878c55.58,-0 100.487,-31.214 100.487,-69.878c-0,-2.618 -0.202,-5.034 -0.604,-7.451c8.256,-4.027 14.499,-12.888 14.499,-23.158Zm-172.177,17.922c-0,-9.867 8.055,-17.922 17.922,-17.922c9.868,-0 17.923,8.055 17.923,17.922c-0,9.868 -8.055,17.923 -17.923,17.923c-9.867,-0 -17.922,-8.055 -17.922,-17.923Zm100.084,47.324c-12.284,12.284 -35.644,13.089 -42.491,13.089c-6.846,0 -30.408,-1.007 -42.49,-13.089c-1.813,-1.813 -1.813,-4.833 -0,-6.646c1.812,-1.812 4.833,-1.812 6.645,0c7.653,7.653 24.165,10.472 36.047,10.472c11.881,-0 28.192,-2.819 36.046,-10.472c1.813,-1.812 4.833,-1.812 6.646,0c1.409,2.014 1.409,4.833 -0.403,6.646Zm-3.222,-29.401c-9.868,-0 -17.923,-8.055 -17.923,-17.923c0,-9.867 8.055,-17.922 17.923,-17.922c9.867,-0 17.922,8.055 17.922,17.922c0,9.868 -8.055,17.923 -17.922,17.923Z" style="fill:#ff4500;fill-rule:nonzero;"/></svg>