<?xml version="1.0" encoding="UTF-8" standalone="no"?><!DOCTYPE svg PUBLIC "-//W3C//DTD SVG 1.1//EN" "http://www.w3.org/Graphics/SVG/1.1/DTD/svg11.dtd"><svg width="100%" height="100%" viewBox="0 0 367 367" version="1.1" xmlns="http://www.w3.org/2000/svg" xmlns:xlink="http://www.w3.org/1999/xlink" xml:space="preserve" xmlns:serif="http://www.serif.com/" style="fill-rule:evenodd;clip-rule:evenodd;stroke-linejoin:round;stroke-miterlimit:2;"><rect id="Twitter" x="0" y="0" width="366.667" height="366.667" style="fill:none;"/><path id="Twitter1" serif:id="Twitter" d="M140.818,276.438c86.479,0 133.779,-71.646 133.779,-133.778c-0,-2.035 -0,-4.061 -0.138,-6.078c9.202,-6.655 17.145,-14.897 23.458,-24.337c-8.581,3.802 -17.684,6.296 -27.005,7.397c9.812,-5.874 17.162,-15.12 20.671,-26.005c-9.23,5.476 -19.327,9.336 -29.856,11.412c-8.891,-9.453 -21.306,-14.821 -34.283,-14.821c-25.817,0 -47.062,21.245 -47.062,47.062c0,3.582 0.409,7.152 1.219,10.641c-37.786,-1.895 -73.039,-19.766 -96.901,-49.124c-12.409,21.362 -5.988,49.045 14.557,62.764c-7.482,-0.222 -14.802,-2.241 -21.34,-5.885l-0,0.596c0.006,22.296 15.865,41.675 37.721,46.09c-6.922,1.887 -14.185,2.163 -21.23,0.806c6.144,19.105 23.861,32.275 43.926,32.652c-16.646,13.082 -37.22,20.188 -58.391,20.167c-3.741,-0.008 -7.479,-0.234 -11.193,-0.679c21.499,13.797 46.523,21.118 72.068,21.084" style="fill:#1da1f2;fill-rule:nonzero;"/></svg>